<svg width="61" height="86" viewBox="0 0 61 86" fill="none" xmlns="http://www.w3.org/2000/svg">
<g clip-path="url(#clip0_4_58)">
<path d="M49.4868 13V23.5132H36.6459V41.2185L21.8328 23.5132H10.9971V62.4868H0V13H49.4868Z" fill="#FF6666"/>
<path d="M49.4868 23.5132V62.4868H38.651L23.838 44.7815V62.4868H10.9971V23.5132H21.8328L36.6459 41.2185V23.5132H49.4868Z" fill="#FF6666"/>
<path d="M60.4839 23.5132V73H10.9971V62.4868H23.838V44.7815L38.651 62.4868H49.4868V23.5132H60.4839Z" fill="#336699"/>
<path d="M49.4868 23.5132V62.4868H38.651L23.838 44.7815V62.4868H10.9971V23.5132H21.8328L36.6459 41.2185V23.5132H49.4868Z" fill="#336699"/>
<path d="M36.6459 23.5132V41.2185L21.8329 23.5132H11.0338V62.4868H23.838V44.7815L38.6511 62.4868H49.4502V23.5132H36.6459Z" fill="white"/>
</g>
<defs>
<clipPath id="clip0_4_58">
<rect width="60.4839" height="86" fill="white"/>
</clipPath>
</defs>
</svg>
